<svg width="176" height="24" viewBox="0 0 176 24" fill="none" xmlns="http://www.w3.org/2000/svg">
<path d="M54 6.5C54 8.433 52.433 10 50.5 10C48.567 10 47 8.433 47 6.5C47 4.567 48.567 3 50.5 3C52.433 3 54 4.567 54 6.5Z" fill="#151515"/>
<path d="M54 16.5C54 18.433 52.433 20 50.5 20C48.567 20 47 18.433 47 16.5C47 14.567 48.567 13 50.5 13C52.433 13 54 14.567 54 16.5Z" fill="#151515"/>
<rect x="47" y="6" width="7" height="11" fill="#151515"/>
<path d="M123.425 6.47488C124.791 7.84171 124.791 10.0578 123.425 11.4246C122.058 12.7915 119.842 12.7915 118.475 11.4246C117.108 10.0578 117.108 7.84171 118.475 6.47488C119.842 5.10804 122.058 5.10804 123.425 6.47488Z" fill="#434343"/>
<path d="M130.496 13.5459C131.863 14.9128 131.863 17.1289 130.496 18.4957C129.129 19.8625 126.913 19.8625 125.546 18.4957C124.179 17.1289 124.179 14.9128 125.546 13.5459C126.913 12.1791 129.129 12.1791 130.496 13.5459Z" fill="#434343"/>
<rect x="118.121" y="11.0711" width="7" height="11" transform="rotate(-45 118.121 11.0711)" fill="#434343"/>
<path d="M130.51 11.4393C129.144 12.8062 126.927 12.8062 125.561 11.4393C124.194 10.0725 124.194 7.85643 125.561 6.4896C126.927 5.12276 129.144 5.12276 130.51 6.4896C131.877 7.85643 131.877 10.0725 130.51 11.4393Z" fill="#151515"/>
<path d="M123.439 18.5104C122.073 19.8772 119.856 19.8772 118.49 18.5104C117.123 17.1436 117.123 14.9275 118.49 13.5607C119.856 12.1938 122.073 12.1938 123.439 13.5607C124.806 14.9275 124.806 17.1436 123.439 18.5104Z" fill="#151515"/>
<rect x="125.914" y="6.13605" width="7" height="11" transform="rotate(45 125.914 6.13605)" fill="#151515"/>
<path d="M13.5 24C10.8098 24 8.44973 23.4844 6.41984 22.4532C4.38995 21.4221 2.8125 19.9981 1.6875 18.1813C0.5625 16.3399 0 14.2531 0 11.9207V3.99999H7.99728V11.7365C7.99728 12.8168 8.22962 13.7743 8.69429 14.6091C9.15897 15.4193 9.80707 16.0576 10.6386 16.5241C11.4701 16.966 12.4117 17.187 13.4633 17.187C14.5883 17.187 15.3927 16.9161 16.2486 16.4742C17.1046 16.0077 17.7772 15.3694 18.2663 14.5592C18.7554 13.7244 19 12.7669 19 11.6867V3.95012L27 3.99999V11.9207C27 14.2531 26.4375 16.3399 25.3125 18.1813C24.1875 19.9981 22.6101 21.4221 20.5802 22.4532C18.5747 23.4844 16.2147 24 13.5 24Z" fill="#151515"/>
<circle cx="4" cy="4" r="4" fill="#151515"/>
<circle cx="23" cy="4" r="4" fill="#151515"/>
<path d="M88.5 24C85.8098 24 83.4497 23.4844 81.4198 22.4532C79.3899 21.4221 77.8125 19.9981 76.6875 18.1813C75.5625 16.3399 75 14.2531 75 11.9207V3.99999H82.9973V11.7365C82.9973 12.8168 83.2296 13.7743 83.6943 14.6091C84.159 15.4193 84.8071 16.0576 85.6386 16.5241C86.4701 16.966 87.4117 17.187 88.4633 17.187C89.5883 17.187 90.3927 16.9161 91.2486 16.4742C92.1046 16.0077 92.7772 15.3694 93.2663 14.5592C93.7554 13.7244 94 12.7669 94 11.6867V3.95012L102 3.99999V11.9207C102 14.2531 101.438 16.3399 100.312 18.1813C99.1875 19.9981 97.6101 21.4221 95.5802 22.4532C93.5747 23.4844 91.2147 24 88.5 24Z" fill="#151515"/>
<circle cx="79" cy="4" r="4" fill="#151515"/>
<circle cx="98" cy="4" r="4" fill="#151515"/>
<path d="M162.5 24C159.81 24 157.45 23.4844 155.42 22.4532C153.39 21.4221 151.812 19.9981 150.687 18.1813C149.562 16.3399 149 14.2531 149 11.9207V3.99999H156.997V11.7365C156.997 12.8168 157.23 13.7743 157.694 14.6091C158.159 15.4193 158.807 16.0576 159.639 16.5241C160.47 16.966 161.412 17.187 162.463 17.187C163.588 17.187 164.393 16.9161 165.249 16.4742C166.105 16.0077 166.777 15.3694 167.266 14.5592C167.755 13.7244 168 12.7669 168 11.6867V3.95012L176 3.99999V11.9207C176 14.2531 175.438 16.3399 174.312 18.1813C173.187 19.9981 171.61 21.4221 169.58 22.4532C167.575 23.4844 165.215 24 162.5 24Z" fill="#151515"/>
<circle cx="153" cy="4" r="4" fill="#151515"/>
<circle cx="172" cy="4" r="4" fill="#151515"/>
</svg>
