<svg width="175" height="26" viewBox="0 0 175 26" fill="none" xmlns="http://www.w3.org/2000/svg">
<path d="M12.5561 25.3638C10.0747 25.3638 7.89788 24.8876 6.02554 23.9353C4.15321 22.983 2.69821 21.6679 1.66053 19.99C0.62285 18.2894 0.104012 16.3621 0.104012 14.208V1.35163H7.48055V14.0379C7.48055 15.0356 7.69485 15.9199 8.12346 16.6909C8.55206 17.4391 9.14986 18.0286 9.91684 18.4595C10.6838 18.8676 11.5523 19.0717 12.5223 19.0717C13.56 19.0717 14.4736 18.8676 15.2631 18.4595C16.0527 18.0286 16.673 17.4391 17.1242 16.6909C17.5754 15.9199 17.8009 15.0356 17.8009 14.0379V1.35163H25.0083V14.208C25.0083 16.3621 24.4894 18.2894 23.4518 19.99C22.4141 21.6679 20.9591 22.983 19.0868 23.9353C17.237 24.8876 15.0601 25.3638 12.5561 25.3638Z" fill="#151515"/>
<path d="M87.104 25.3638C84.6226 25.3638 82.4457 24.8876 80.5734 23.9353C78.7011 22.983 77.2461 21.6679 76.2084 19.99C75.1707 18.2894 74.6519 16.3621 74.6519 14.208V1.35163H82.0284V14.0379C82.0284 15.0356 82.2427 15.9199 82.6713 16.6909C83.0999 17.4391 83.6977 18.0286 84.4647 18.4595C85.2317 18.8676 86.1002 19.0717 87.0702 19.0717C88.1078 19.0717 89.0214 18.8676 89.811 18.4595C90.6005 18.0286 91.2209 17.4391 91.672 16.6909C92.1232 15.9199 92.3488 15.0356 92.3488 14.0379V1.35163H99.5561V14.208C99.5561 16.3621 99.0373 18.2894 97.9996 19.99C96.9619 21.6679 95.5069 22.983 93.6346 23.9353C91.7848 24.8876 89.608 25.3638 87.104 25.3638Z" fill="#151515"/>
<path d="M161.652 24.8324C159.17 24.8324 156.994 24.3562 155.121 23.4039C153.249 22.4516 151.794 21.1364 150.756 19.4585C149.719 17.758 149.2 15.8306 149.2 13.6766V0.820202H156.576V13.5065C156.576 14.5042 156.791 15.3885 157.219 16.1594C157.648 16.9077 158.246 17.4972 159.013 17.928C159.78 18.3362 160.648 18.5402 161.618 18.5402C162.656 18.5402 163.569 18.3362 164.359 17.928C165.148 17.4972 165.769 16.9077 166.22 16.1594C166.671 15.3885 166.897 14.5042 166.897 13.5065V0.820202H174.104V13.6766C174.104 15.8306 173.585 17.758 172.547 19.4585C171.51 21.1364 170.055 22.4516 168.182 23.4039C166.333 24.3562 164.156 24.8324 161.652 24.8324Z" fill="#151515"/>
<rect x="47.5059" y="3.9025" width="6.3445" height="16.4744" fill="#151515"/>
<rect width="6.36086" height="16.4322" transform="matrix(0.705289 -0.70892 0.705289 0.70892 116.767 8.41188)" fill="#434343"/>
<rect width="6.36086" height="16.4322" transform="matrix(0.705289 0.70892 -0.705289 0.70892 128.58 4.13968)" fill="#151515"/>
</svg>
